<svg width="465" height="126" viewBox="0 0 465 126" fill="none" xmlns="http://www.w3.org/2000/svg">
<g clip-path="url(#clip0_935_20)">
<path fill-rule="evenodd" clip-rule="evenodd" d="M352.151 126V5.76875C352.151 5.76875 375.938 2.7832 401.925 2.7832C454.513 2.7832 465 39.0651 465 71.3495C465 103.634 459.117 111.781 445.561 126H352.151Z" fill="#5CCEB2"/>
<path fill-rule="evenodd" clip-rule="evenodd" d="M344.428 126H248.717C242.936 118.157 239.918 107.176 239.918 92.2482V3.99756H319.515V87.2891L343.507 85.8723L344.428 126Z" fill="#5CCEB2"/>
<path fill-rule="evenodd" clip-rule="evenodd" d="M216.591 126H129.116C116.89 113.299 109.83 94.0193 109.83 68.9711C109.779 26.9205 136.789 0 173.263 0C209.736 0 235.928 26.9205 235.928 68.9711C235.928 111.022 228.766 113.349 216.591 126Z" fill="#5CCEB2"/>
<path fill-rule="evenodd" clip-rule="evenodd" d="M0 126V3.99756H62.0512C88.8564 3.99756 100.315 17.9638 100.315 34.865C100.315 51.7662 96.0693 58.3951 87.2195 64.9735C102.106 68.971 109.37 82.8867 109.37 99.2313C109.37 115.576 107.323 118.46 100.724 126H0Z" fill="#5CCEB2"/>
</g>
<defs>
<clipPath id="clip0_935_20">
<rect width="465" height="126" fill="white"/>
</clipPath>
</defs>
</svg>
